# xmcd
#
# Track frame offsets: 
#        150
#        19162
#        31312
#        46237
#        62486
#        83456
#        93431
#        107821
#        129665
#        144384
#        159534
#
# Disc length: 2438 seconds
#
# Revision: 0
# Processed by: cddbd v1.5.2PL0 Copyright (c) Steve Scherf et al.
# Submitted via: ExactAudioCopyFreeDBPlugin 1.0
#
DISCID=8409840b
DTITLE=The Ride - HEY LA-BAS
DYEAR=1900
DGENRE=
TTITLE0=Pretty Baby
TTITLE1=I ain't gonna be your monkey man
TTITLE2=Why babe why
TTITLE3=Cold women with warm hearts
TTITLE4=Kiss
TTITLE5=Come on in my kitchen
TTITLE6=Down in Virginia
TTITLE7=Call me the breeze
TTITLE8=Did somebody make a foolö out of you
TTITLE9=Hear my train a coming
TTITLE10=Amen
EXTD=
EXTT0=
EXTT1=
EXTT2=
EXTT3=
EXTT4=
EXTT5=
EXTT6=
EXTT7=
EXTT8=
EXTT9=
EXTT10=
PLAYORDER=
